<svg class="border shadow-md" viewBox="0 0 554.4 554.4" style="width: 554.4px; height: 554.4px;" xmlns="http://www.w3.org/2000/svg" preserveAspectRatio="none"><rect class="bg" id="bg" x="0" y="0" width="554.4" height="554.4" fill="#000000"/><g transform="rotate(0 277.2 277.2)"><path id="-1" d="M -377.20 -25.44 S -369.00 -77.44&#10;            0.00 -25.44 103.20 -65.44&#10;            377.20 -25.44 496.40 -53.16&#10;            754.40 -25.44 802.60 -53.16&#10;            1131.60 -25.44 h 110 V 754.4 H -377.20 Z" fill="#004763"/><path id="0" d="M -377.20 30.00 S -198.60 2.00&#10;            0.00 30.00 178.60 2.28&#10;            377.20 30.00 555.80 2.28&#10;            754.40 30.00 933.00 -24.00&#10;            1131.60 30.00 h 110 V 754.4 H -377.20 Z" fill="#02435d"/><path id="1" d="M -377.20 85.44 S -198.60 57.72&#10;            0.00 85.44 178.60 37.44&#10;            377.20 85.44 555.80 38.44&#10;            754.40 85.44 875.60 47.44&#10;            1131.60 85.44 h 110 V 754.4 H -377.20 Z" fill="#043f57"/><path id="2" d="M -377.20 140.88 S -198.60 112.88&#10;            0.00 140.88 21.20 87.88&#10;            377.20 140.88 499.40 113.16&#10;            754.40 140.88 933.00 113.16&#10;            1131.60 140.88 h 110 V 754.4 H -377.20 Z" fill="#063b51"/><path id="3" d="M -377.20 196.32 S -206.00 160.32&#10;            0.00 196.32 93.20 167.32&#10;            377.20 196.32 555.80 145.32&#10;            754.40 196.32 825.60 168.60&#10;            1131.60 196.32 h 110 V 754.4 H -377.20 Z" fill="#08374b"/><path id="4" d="M -377.20 251.76 S -347.00 224.04&#10;            0.00 251.76 123.20 198.76&#10;            377.20 251.76 555.80 224.04&#10;            754.40 251.76 933.00 209.76&#10;            1131.60 251.76 h 110 V 754.4 H -377.20 Z" fill="#0a3345"/><path id="5" d="M -377.20 307.20 S -198.60 258.20&#10;            0.00 307.20 178.60 279.48&#10;            377.20 307.20 370.40 279.48&#10;            754.40 307.20 933.00 257.20&#10;            1131.60 307.20 h 110 V 754.4 H -377.20 Z" fill="#0c2f3f"/><path id="6" d="M -377.20 362.64 S -198.60 334.92&#10;            0.00 362.64 178.60 310.64&#10;            377.20 362.64 386.40 325.64&#10;            754.40 362.64 933.00 329.64&#10;            1131.60 362.64 h 110 V 754.4 H -377.20 Z" fill="#0e2b39"/><path id="7" d="M -377.20 418.08 S -312.00 390.08&#10;            0.00 418.08 59.20 376.08&#10;            377.20 418.08 444.40 390.36&#10;            754.40 418.08 924.60 390.36&#10;            1131.60 418.08 h 110 V 754.4 H -377.20 Z" fill="#102733"/><path id="8" d="M -377.20 473.52 S -233.00 445.80&#10;            0.00 473.52 178.60 418.52&#10;            377.20 473.52 471.40 438.52&#10;            754.40 473.52 933.00 436.52&#10;            1131.60 473.52 h 110 V 754.4 H -377.20 Z" fill="#12232d"/><path id="9" d="M -377.20 528.96 S -198.60 491.96&#10;            0.00 528.96 178.60 501.24&#10;            377.20 528.96 555.80 499.96&#10;            754.40 528.96 933.00 501.24&#10;            1131.60 528.96 h 110 V 754.4 H -377.20 Z" fill="#141f27"/></g></svg>